<svg xmlns="http://www.w3.org/2000/svg" viewBox="0 0 880 300" width="880" height="300" role="img" aria-label="Abhishek Mishra — game development, systems design, real-time control">
  <defs>
    <filter id="silkL" x="-20%" y="-20%" width="140%" height="140%">
      <feTurbulence type="fractalNoise" baseFrequency="0.012 0.035" numOctaves="4" seed="7" result="noise"/>
      <feColorMatrix in="noise" type="matrix" values="0 0 0 0 0  0 0 0 0 0  0 0 0 0 0  0.9 0.9 0.9 0 0" result="alphaNoise"/>
      <feGaussianBlur in="alphaNoise" stdDeviation="1.1" result="softNoise"/>
      <feDisplacementMap in="SourceGraphic" in2="softNoise" scale="55" xChannelSelector="R" yChannelSelector="G"/>
    </filter>
    <linearGradient id="baseL" x1="0" y1="0" x2="880" y2="300" gradientUnits="userSpaceOnUse">
      <stop offset="0" stop-color="#fbfbfc"/>
      <stop offset="0.45" stop-color="#f1f2f4"/>
      <stop offset="1" stop-color="#e7e8eb"/>
    </linearGradient>
    <radialGradient id="sheenL" cx="0.28" cy="0.15" r="0.9">
      <stop offset="0" stop-color="#ffffff" stop-opacity="0.85"/>
      <stop offset="0.4" stop-color="#ffffff" stop-opacity="0.25"/>
      <stop offset="1" stop-color="#ffffff" stop-opacity="0"/>
    </radialGradient>
    <radialGradient id="vignetteL" cx="0.5" cy="0.5" r="0.75">
      <stop offset="0.6" stop-color="#000000" stop-opacity="0"/>
      <stop offset="1" stop-color="#9a9ba1" stop-opacity="0.28"/>
    </radialGradient>
    <linearGradient id="foldL" x1="0" y1="0" x2="1" y2="1">
      <stop offset="0" stop-color="#e2e3e6"/>
      <stop offset="0.5" stop-color="#f4f5f7"/>
      <stop offset="1" stop-color="#dcdde1"/>
    </linearGradient>
    <clipPath id="frameL">
      <rect x="0" y="0" width="880" height="300" rx="14"/>
    </clipPath>
  </defs>

  <g clip-path="url(#frameL)">
    <rect x="0" y="0" width="880" height="300" fill="url(#baseL)"/>
    <rect x="-40" y="-40" width="960" height="380" fill="url(#foldL)" filter="url(#silkL)" opacity="0.9"/>
    <rect x="0" y="0" width="880" height="300" fill="url(#sheenL)"/>
    <rect x="0" y="0" width="880" height="300" fill="url(#vignetteL)"/>
  </g>

  <rect x="0" y="0" width="880" height="300" rx="14" fill="none" stroke="#d7d8dc" stroke-width="1"/>

  <g font-family="ui-monospace,'SF Mono','Cascadia Mono','Segoe UI Mono',Menlo,Consolas,monospace">
    <g transform="translate(34,38)">
      <path d="M0 0 L7 0 L11 9 L15 0 L22 0 L14 15 L22 30 L15 30 L11 21 L7 30 L0 30 L8 15 Z" fill="#a8552c"/>
    </g>
    <text x="846" y="58" text-anchor="end" font-size="11" letter-spacing="2.4" fill="#6a737d">@ANAKINSKYWALKER0</text>
  </g>

  <g font-family="Arial,'Helvetica Neue',Helvetica,sans-serif" font-weight="800">
    <text x="34" y="150" font-size="52" letter-spacing="-1" fill="#14171a">Abhishek Mishra</text>
    <text x="34" y="196" font-size="26" letter-spacing="-0.3" fill="#54585f">Systems that decide. Bodies that move.</text>
  </g>

  <text x="34" y="256" font-family="ui-monospace,'SF Mono','Cascadia Mono','Segoe UI Mono',Menlo,Consolas,monospace" font-size="12.5" letter-spacing="2.6" fill="#6a737d">GAME DEVELOPMENT &#183; SYSTEMS DESIGN &#183; REAL-TIME CONTROL</text>
  <line x1="34" y1="272" x2="846" y2="272" stroke="#d7dbe0" stroke-width="1"/>
</svg>
