<svg xmlns="http://www.w3.org/2000/svg" viewBox="0 0 880 300" width="880" height="300" role="img" aria-label="Abhishek Mishra — game development, systems design, real-time control">
  <defs>
    <filter id="silk" x="-20%" y="-20%" width="140%" height="140%">
      <feTurbulence type="fractalNoise" baseFrequency="0.012 0.035" numOctaves="4" seed="7" result="noise"/>
      <feColorMatrix in="noise" type="matrix" values="0 0 0 0 0  0 0 0 0 0  0 0 0 0 0  0.9 0.9 0.9 0 0" result="alphaNoise"/>
      <feGaussianBlur in="alphaNoise" stdDeviation="1.1" result="softNoise"/>
      <feDisplacementMap in="SourceGraphic" in2="softNoise" scale="55" xChannelSelector="R" yChannelSelector="G"/>
    </filter>
    <linearGradient id="base" x1="0" y1="0" x2="880" y2="300" gradientUnits="userSpaceOnUse">
      <stop offset="0" stop-color="#141416"/>
      <stop offset="0.45" stop-color="#0a0a0b"/>
      <stop offset="1" stop-color="#050505"/>
    </linearGradient>
    <radialGradient id="sheen" cx="0.28" cy="0.15" r="0.9">
      <stop offset="0" stop-color="#3a3a3f" stop-opacity="0.65"/>
      <stop offset="0.4" stop-color="#1c1c1f" stop-opacity="0.25"/>
      <stop offset="1" stop-color="#000000" stop-opacity="0"/>
    </radialGradient>
    <radialGradient id="vignette" cx="0.5" cy="0.5" r="0.75">
      <stop offset="0.6" stop-color="#000000" stop-opacity="0"/>
      <stop offset="1" stop-color="#000000" stop-opacity="0.55"/>
    </radialGradient>
    <linearGradient id="fold" x1="0" y1="0" x2="1" y2="1">
      <stop offset="0" stop-color="#2a2a2e"/>
      <stop offset="0.5" stop-color="#101012"/>
      <stop offset="1" stop-color="#1e1e21"/>
    </linearGradient>
    <clipPath id="frame">
      <rect x="0" y="0" width="880" height="300" rx="14"/>
    </clipPath>
  </defs>

  <g clip-path="url(#frame)">
    <rect x="0" y="0" width="880" height="300" fill="url(#base)"/>
    <rect x="-40" y="-40" width="960" height="380" fill="url(#fold)" filter="url(#silk)" opacity="0.9"/>
    <rect x="0" y="0" width="880" height="300" fill="url(#sheen)"/>
    <rect x="0" y="0" width="880" height="300" fill="url(#vignette)"/>
    <rect x="0" y="0" width="880" height="300" fill="#050506" opacity="0.08"/>
  </g>

  <rect x="0" y="0" width="880" height="300" rx="14" fill="none" stroke="#232326" stroke-width="1"/>

  <g font-family="ui-monospace,'SF Mono','Cascadia Mono','Segoe UI Mono',Menlo,Consolas,monospace">
    <g transform="translate(34,38)">
      <path d="M0 0 L7 0 L11 9 L15 0 L22 0 L14 15 L22 30 L15 30 L11 21 L7 30 L0 30 L8 15 Z" fill="#e0885c"/>
    </g>
    <text x="846" y="58" text-anchor="end" font-size="11" letter-spacing="2.4" fill="#7d8590">@ANAKINSKYWALKER0</text>
  </g>

  <g font-family="Arial,'Helvetica Neue',Helvetica,sans-serif" font-weight="800">
    <text x="34" y="150" font-size="52" letter-spacing="-1" fill="#f2f3f5">Abhishek Mishra</text>
    <text x="34" y="196" font-size="26" letter-spacing="-0.3" fill="#8b8f96">Real-time AI for games and robotics.</text>
  </g>

  <text x="34" y="256" font-family="ui-monospace,'SF Mono','Cascadia Mono','Segoe UI Mono',Menlo,Consolas,monospace" font-size="12.5" letter-spacing="2.6" fill="#8b949e">GAME DEVELOPMENT &#183; SYSTEMS DESIGN &#183; REAL-TIME CONTROL</text>
  <line x1="34" y1="272" x2="846" y2="272" stroke="#2a2a2e" stroke-width="1"/>
</svg>
